<?xml version="1.0" encoding="UTF-8"?>
<svg id="svg1" xmlns="http://www.w3.org/2000/svg" viewBox="0 0 164.16 464.66">
  <defs>
    <style>
      .cls-1 {
        fill: none;
      }

      .cls-2 {
        fill: #daaa55;
      }

      .cls-3 {
        fill: #d49a35;
      }
    </style>
  </defs>
  <g>
    <path d="M74.45,447.54H17.34c-.53,0-.92.3-.92.72s.39.72.92.72h57.11v-1.44Z"/>
    <path d="M146.8,447.54h-57.11v1.44h57.11c.54,0,.92-.3.92-.72s-.39-.72-.92-.72Z"/>
  </g>
  <g>
    <path d="M64.28,372.47H6.78c-.13,0-.23-.03-.29-.05.06-.03.16-.05.29-.05h57.5v-.33H6.78c-.39,0-.66.16-.66.38s.27.38.66.38h57.5v-.33Z"/>
    <path d="M157.37,372.03h-57.83v.33h57.83c.13,0,.23.03.29.05-.06.03-.16.05-.29.05h-57.83v.33h57.83c.39,0,.66-.16.66-.38s-.27-.38-.66-.38Z"/>
  </g>
  <g>
    <path class="cls-2" d="M21.5,134.69c-.19,1.21-.56,2.69-.81,3.29-.29.7-.34.3-.12-1.09.19-1.21.55-2.69.81-3.29.29-.7.33-.3.12,1.09Z"/>
    <path class="cls-2" d="M66.26,273.95c-.38-.46-.59-.94-.46-1.07s.54.24.9.83c.8,1.28.54,1.42-.44.24Z"/>
    <path class="cls-2" d="M72.3,280.61c0,.45-.45.16-1.17-.76-.68-.86-.66-.88.21-.2.53.41.96.84.96.96Z"/>
    <path class="cls-2" d="M66.29,47.64c-.03-.67,4.45-5.35,5.7-5.94.63-.3.32.17-.7,1.08-1.01.89-2.54,2.44-3.41,3.45-.86,1.01-1.58,1.64-1.59,1.41Z"/>
    <path class="cls-2" d="M158.65,144.87c-.71-4.09-1.8-10.89-2.43-15.11-2.48-16.77-4.41-22.18-12.38-34.82-2.19-3.46-5.83-10.16-8.09-14.88-4.86-10.16-6.86-13.3-12.84-20.12-2.72-3.11-5.4-6.89-6.8-9.6-4.18-8.09-7.34-11.09-13.78-13.04-7.72-2.35-9.8-11.53-5.6-24.76,1.94-6.1,1.63-6.59-4.29-6.84-6.95-.3-8.1,1.13-9.67,11.97-1.89,13.07-4.21,16.98-11.54,19.42-6.98,2.32-9.98,5.23-14.75,14.26-.96,1.81-3.85,5.76-6.43,8.78-7,8.19-9.1,11.68-14.45,23.95-1.28,2.92-4.5,9-7.17,13.52-9.09,15.39-10.83,21.06-14.46,46.96-4.49,32.11-2.2,53.41,8.43,78.41,6.01,14.13,9.17,18.99,19.61,30.16,4.23,4.52,9.95,10.93,12.73,14.25,2.77,3.32,7.96,9.15,11.52,12.97,3.57,3.81,7.85,8.87,9.51,11.24,3.66,5.23,5.11,6.64,7.85,7.62,4.82,1.73,8.54-.45,13.6-7.97,2.39-3.55,6.59-8.57,11-13.16,43.37-45.06,58.72-85.61,50.43-133.21ZM95.66,35.7c.78.92,1.33,1.64,1.22,1.59-.1-.05-.85-.18-1.66-.31-2.26-.34-3.46-4.02-3.44-10.57.01-4.66,1.59-14.21,2.24-13.56.13.13-.14,1.82-.59,3.74-1.71,7.25-.73,15.58,2.23,19.11ZM99.45,52.99c2.6,10.01,5.71,15.91,12.87,24.41,7.46,8.85,9.77,13.49,15.85,31.88,2.12,6.44,5.22,15.65,6.88,20.48,9.44,27.51,9.52,53.7.25,81.7-4.78,14.44-9.35,22.63-21.92,39.28-8.23,10.89-12.08,16.77-17.07,26.05-2.2,4.08-5.11,8.8-6.47,10.48-3.74,4.65-5.05,3.76-11.58-7.81-6.2-10.98-8.9-15.31-12.49-20.03-15.79-20.69-20.6-27.94-25.21-37.91-12-25.98-13.89-56.99-4.99-81.89,1.83-5.13,4.58-13.76,6.11-19.18,5.62-19.91,9.24-27.96,18.31-40.66,6.49-9.1,9.57-15.05,12.41-24.05,7.38-23.33,21.34-24.75,27.05-2.75ZM94.78,11.6c-.29.45-.53.58-.53.28s.24-.92.53-1.37c.29-.46.53-.58.53-.28s-.24.92-.53,1.37ZM78.54,35.2c3.43-3.57,5.34-8.77,6.32-17.17.84-7.2,1.56-9.17,3.71-10.07,3.04-1.27,7.31-.79,7.3.83-.01.72-.1.75-.49.13-2.7-4.25-6.1,20.96-3.53,26.14,1.28,2.58,1.48,2.44-2.01,1.45-.88-.25-1.09-.78-1.09-2.71,0-1.32-.25-2.55-.55-2.73-.33-.21-.55.62-.55,2.11q0,2.46-2.6,3.1c-6.09,1.5-8.58,1.09-6.51-1.08ZM132.41,246.27c-12.98,16.52-18.66,23.29-25.29,30.16-4.95,5.12-9,9.93-11.39,13.51-2.05,3.06-4.37,6-5.18,6.52-4.37,2.87-8.08,1.27-12.75-5.5-1.64-2.4-5.84-7.33-9.32-10.97-3.48-3.64-9.56-10.43-13.52-15.09-3.96-4.67-9.84-11.31-13.07-14.77-22.83-24.46-32.49-63.35-26.16-105.29,4.2-27.82,5.46-31.66,16.08-49.07,1.66-2.72,4.2-7.65,5.66-10.97,5.71-12.99,8.03-16.82,14.92-24.58,1.83-2.06,4.53-6,6-8.76,4.79-9.01,10.02-12.82,18.09-13.19q3.51-.16,1.9,1.42c-2.81,2.74-4.86,6.56-6.55,12.21-3.34,11.18-6.15,16.82-13.7,27.53-9.25,13.13-12.29,19.82-17.91,39.32-1.92,6.66-4.51,14.94-5.77,18.41-5.39,14.96-6.21,19.44-6.2,34,.02,30.87,8.37,53.71,29.43,80.53,8.14,10.37,11.14,14.67,15.18,21.82,7.21,12.78,8.31,14.53,10.47,16.69,4.26,4.26,6.84,1.84,15.86-14.87,4.91-9.1,6.37-11.3,16.19-24.41,28.71-38.31,36.16-78.73,22.07-119.79-1.5-4.37-4.79-14.14-7.3-21.71-6.41-19.26-8.4-23.27-16.58-33.31-6.98-8.57-10.16-14.61-12.27-23.28-1.42-5.81-3.12-9.55-5.73-12.6q-1.97-2.31.13-2.3c8.03.02,14.02,4.15,18.26,12.57,1.21,2.41,3.74,6.15,5.63,8.31,7.21,8.25,8.78,10.66,14.13,21.6,2.95,6.03,6.89,13.31,8.75,16.18,6.56,10.11,9.26,17.35,11.26,30.15.49,3.17,1.6,9.96,2.47,15.08,6.72,39.83-1.56,76.16-23.79,104.45Z"/>
    <path class="cls-2" d="M21.5,134.69c-.19,1.21-.56,2.69-.81,3.29-.29.7-.34.3-.12-1.09.19-1.21.55-2.69.81-3.29.29-.7.33-.3.12,1.09Z"/>
    <path class="cls-2" d="M72.3,280.61c0,.45-.45.16-1.17-.76-.68-.86-.66-.88.21-.2.53.41.96.84.96.96Z"/>
    <path class="cls-2" d="M71.29,42.78c-1.01.89-2.54,2.44-3.41,3.45-.86,1.01-1.58,1.64-1.59,1.41-.03-.67,4.45-5.35,5.7-5.94.63-.3.32.17-.7,1.08Z"/>
    <path class="cls-2" d="M85.18,295.06c-.3,0-1.28-.49-2.19-1.09-2.14-1.42-1.38-1.42.95,0,.98.6,1.55,1.1,1.24,1.09Z"/>
    <path class="cls-2" d="M90.23,293.68c-.85.77-1.94,1.39-2.43,1.39s-.78-.08-.65-.17h0c1.85-1.43,4.44-2.44,3.08-1.22Z"/>
    <path class="cls-2" d="M80.88,291.78c-.1,0-.66-.55-1.23-1.23q-1.05-1.24.19-.19c1.16.98,1.48,1.42,1.04,1.42Z"/>
    <path class="cls-2" d="M97.5,284.65c-3.93,5.46-6.12,7.83-2.78,3.02,1.26-1.81,3.15-4.28,4.21-5.48,1.06-1.21.42-.1-1.43,2.46Z"/>
    <path class="cls-2" d="M72.3,280.61c0,.45-.45.16-1.17-.76-.68-.86-.66-.88.21-.2.53.41.96.84.96.96Z"/>
    <path class="cls-2" d="M104.42,275.61c-2.59,3.27-3.41,4.17-2.75,3.01.9-1.58,5.23-7.1,5.88-7.49.7-.42.32.12-3.13,4.48Z"/>
    <path class="cls-2" d="M127.62,247.78c-4.74,4.92-11.38,12.57-15.48,17.82-2.06,2.64-3.86,4.8-4,4.8s1.28-2.04,3.16-4.53c5.07-6.72,18.03-21.24,18.95-21.24.23,0-.96,1.42-2.63,3.15Z"/>
    <path class="cls-2" d="M61.74,268.2c-.13,0-1.45-1.42-2.93-3.15-3.4-3.97-4.84-6.06-2.18-3.15,2.64,2.88,5.41,6.3,5.11,6.3Z"/>
    <path class="cls-2" d="M51.82,256.69c-.15,0-2.63-2.53-5.5-5.62-4.41-4.75-9.66-11.13-9.66-11.75,0-.56.68.2,3.17,3.53,1.52,2.03,4.91,5.98,7.52,8.77,2.61,2.79,4.63,5.07,4.47,5.07Z"/>
    <path class="cls-2" d="M138.9,233.11c-.15,0,.57-1.66,1.59-3.7,2.32-4.61,7.4-18.82,9.44-26.41.84-3.15,1.63-5.44,1.74-5.1.88,2.64-10.93,35.21-12.77,35.21Z"/>
    <path class="cls-2" d="M31.55,230.18c-.14.14-1.17-1.67-2.29-4.02-2.45-5.14-7.02-17.19-6.66-17.55.14-.14.43.32.64,1.02.79,2.6,5.75,14.75,7.13,17.48.79,1.55,1.32,2.94,1.18,3.07Z"/>
    <path class="cls-2" d="M21.09,204.45c-.18.19-.31-.14-.29-.72.03-.64.16-.77.33-.33.16.4.14.87-.04,1.05Z"/>
    <path class="cls-2" d="M20.53,202.27c-.12.12-.61-1.52-1.09-3.63-.48-2.12-.85-4.29-.83-4.84.03-.54.52,1.09,1.09,3.64.58,2.54.95,4.71.83,4.83Z"/>
    <path class="cls-2" d="M154.48,183.22c.07,1.67-1.38,10.06-2.13,12.33-.49,1.48-.51,1.43-.2-.54.99-6.44,2.29-12.99,2.33-11.79Z"/>
    <path class="cls-2" d="M18.4,191.85c-.14.53-.25.1-.25-.96s.11-1.48.25-.96c.13.53.13,1.4,0,1.92Z"/>
    <path class="cls-2" d="M17.72,188.58c-.06.09-.25-1.52-.44-3.56-.79-8.91-1.01-17.99-.57-23.53.43-5.42.5-4.46.79,10.49.18,9.05.27,16.52.22,16.6Z"/>
    <path class="cls-2" d="M155.22,177.74c-.4,3.38-.48,2.17-.45-6.86.03-6.03-.12-13.43-.32-16.45-.26-3.84-.22-4.66.12-2.74.76,4.33,1.2,21.52.65,26.05Z"/>
    <path class="cls-2" d="M17.8,152.37c-.18.18-.31-.15-.29-.72.03-.64.16-.77.33-.34.16.4.14.87-.04,1.06Z"/>
    <path class="cls-2" d="M18.86,147.03c-.4,1.96-.75,2.95-.76,2.19-.02-.75.3-2.85.71-4.66.96-4.27,1.01-2.17.05,2.47Z"/>
    <path class="cls-2" d="M152.92,144.7c-.95-5.35-4.17-18.51-5.57-22.79-.63-1.9-1.03-3.57-.9-3.7.65-.65,6.07,20.16,7.32,28.14.62,3.97-.11,2.55-.85-1.65Z"/>
    <path class="cls-2" d="M19.99,140.85c-.18.18-.31-.14-.28-.72.02-.64.15-.77.33-.33.16.4.14.87-.05,1.05Z"/>
    <path class="cls-2" d="M21.5,134.69c-.19,1.21-.56,2.69-.81,3.29-.29.7-.34.3-.12-1.09.19-1.21.55-2.69.81-3.29.29-.7.33-.3.12,1.09Z"/>
    <path class="cls-2" d="M30.69,108.65c-1.77,3.77-4.26,10.06-5.53,13.98-3.21,9.88-3.36,10.29-2.96,7.95.99-5.74,8.19-24.25,10.69-27.46.57-.73-.42,1.76-2.2,5.53Z"/>
    <path class="cls-2" d="M146.14,117.24c-.13.12-1.04-1.82-2.04-4.32-.99-2.5-2.89-6.73-4.21-9.39-1.32-2.67-2.19-4.72-1.92-4.55,1.23.76,8.78,17.64,8.17,18.26Z"/>
    <path class="cls-2" d="M137.29,98.23c-.15,0-.77-.98-1.39-2.19-.61-1.21-.99-2.19-.84-2.19s.77.98,1.39,2.19c.61,1.21.99,2.19.84,2.19Z"/>
    <path class="cls-2" d="M54.18,69.04c-4.76,6.58-9.09,13.25-12.73,19.6-3.37,5.88-6.04,9.87-4.22,6.3,4.25-8.33,17.78-29.06,18.97-29.06.14,0-.77,1.42-2.02,3.16Z"/>
    <path class="cls-2" d="M133.47,91.11c-.15,0-.54-.5-.86-1.1-.32-.6-.46-1.1-.31-1.1s.54.5.86,1.1c.32.6.46,1.1.31,1.1Z"/>
    <path class="cls-2" d="M131.4,87.26c-.09-.01-2.46-3.4-5.27-7.54-2.81-4.14-6.94-10-9.17-13.01-3.64-4.9-8.49-13.11-8.47-14.34.01-.26.99,1.33,2.19,3.52,2.66,4.89,5.71,9.45,10.17,15.2,4.08,5.26,11.22,16.21,10.55,16.17Z"/>
    <path class="cls-2" d="M57.74,63.96c-.78.91-1.24,1.28-1.01.83.22-.46,1.07-1.81,1.88-3.02.82-1.2,2.75-4.72,4.3-7.81,1.55-3.09,2.95-5.62,3.11-5.62.55,0-6.86,13.99-8.28,15.62Z"/>
    <path class="cls-2" d="M107.26,49.74c-.11.12-.67-.58-1.24-1.56-.57-.97-2.4-3.12-4.07-4.78-3.05-3.02-2.46-2.88.98.25,1.85,1.68,4.72,5.71,4.33,6.09Z"/>
    <path class="cls-2" d="M71.29,42.78c-1.01.89-2.54,2.44-3.41,3.45-.86,1.01-1.58,1.64-1.59,1.41-.03-.67,4.45-5.35,5.7-5.94.63-.3.32.17-.7,1.08Z"/>
    <path class="cls-2" d="M88.04,12.82c-.47,1.89-1.02,4.68-1.23,6.18-1.15,8.41-4.41,17.28-6.35,17.28-.28,0,.1-.93.84-2.06,1.61-2.47,2.73-6.29,3.92-13.3,1.04-6.14,2.24-11.5,2.67-11.93.85-.85.91.73.15,3.83Z"/>
    <path class="cls-2" d="M90.36,11.94c-.33.87-.97,4.66-1.41,8.42-1,8.48-1.55,9.3-1.13,1.66.34-6.24,1.25-11.31,2.11-11.84.91-.56,1.07.1.43,1.76Z"/>
  </g>
  <g>
    <path class="cls-3" d="M97.05,190.72l3.22-3.11,2.27-2.21c.43-.42.72-1.22.89-1.79.46-1.62-.17-4.18,2.35-7.07.72-.83,1.53-1.47,2.41-2.15.2-.16.31-.47.46-.77.03.46.02.87.16,1.39.29-1.81,1.04-3.41,2.35-4.72l1.54-1.53c.41-1.01.65-1.99,1.23-2.88l-.76,2.57c-.09.31-.03.73.12,1.05.17-1.38.75-2.53,1.59-3.63.65-.84,1.58-1.38,2.28-2.17.47-.68.72-1.59,1.12-2.36,1.04-2.01,1.96-4.04,3.2-5.93-1.44,3.05-2.89,5.95-3.81,9.19-.07.26.02.68.12.97.46-1.96,1.97-3.73,3.69-4.61l1.67-.86c1.68-2.31,2.9-4.8,4.26-7.3-.96,2.71-2.32,5.14-3.58,7.7l-.48,2.91c-.37,1.42-1.06,2.59-2.07,3.64l1.08-.27c2.57-1.93,4.44-4.39,6.3-7.01-1.41,2.76-3.36,5.12-5.5,7.34-.76,2.24-1.76,3.94-3.82,5.17.3.03.77.07,1.02-.04,1.45-.62,2.69-1.43,3.92-2.38,1.34-1.04,2.41-2.26,3.63-3.46-1.93,2.58-4.4,4.63-7.04,6.45-1.53,2.29-3.06,4.15-5.81,5.02l1.16.18c-.1.23-.04.28.1.15,2.44-.66,4.54-1.79,6.63-3.18-1.73,1.58-3.79,2.63-5.89,3.63l-1.9.91c-1.23,1.49-2.62,2.67-4.56,3.31l1.56.35-.18.33c1.98-.43,3.73-1.37,5.55-2.42-1.96,1.71-4.31,2.77-6.77,3.51-1.49,1.21-3.33,1.8-5.23,1.6-1.34-.48-2.61-.01-3.58.95l-3.07,3.03c4.87-1.14,9.93-1.3,14.93-.32-3.06,1.33-5.05,3.28-6.65,5.99l-2.31,4.67c-.97,1.96-1.88,3.88-3.17,5.65-.98,1.35-2.08,2.48-3.39,3.5-2.19,1.7-4.76,2.56-7.52,2.94l-4.25.59c-1.69.23-3.21,1-4.5,2.09-.91.76-1.54,1.65-2.32,2.64-.13-.34-.12-.74-.01-1.08.62-1.96.89-3.9,1.05-5.95.24-3.23,1.09-6.31,2.67-9.13-3.4.09-6.72-.08-10.04-.74-1.39-.28-2.7-.65-3.91-1.3-.77-.44-1.05-1.11-1.05-1.95,0-.77.2-1.38.9-1.8s1.47-.74,2.3-.88l4.01-.67c1.19-.2,2.08-1.24,2.65-2.25,2.2-3.87,1.01-10.21-1.72-13.91l-1.2-1.62-1.54-1.58c-2.13-2.4-3.82-5.1-5.12-8.05-.73-1.65-1.33-3.23-1.82-4.98-1.52-5.39-1.83-10.95-1.02-16.5l1.27-7.06c.32-1.8.67-3.52.76-5.35.11-2.17-.09-4.25-.81-6.3l.22-.43c-.53-.74-.71-1.64-.44-2.55.44-1.53,1.81-2.56,3.39-2.67,1.15-2.33,3.77-3.43,6.31-2.67,2.7-3.25,7.64-3.31,10.42-.03,2.52-.7,5.05.28,6.21,2.64,1.04.09,1.98.5,2.66,1.29.85,1,1.11,2.42.49,3.61-.15.28-.19.47.04.74-1.2,3.2-1.03,6.79-.39,10.15l1.19,6.28c1.78,9.4.64,18.95-4.21,27.23-1.37,2.34-3,4.35-4.92,6.25-.75.74-1.25,1.73-1.83,2.62-1.26,1.94-1.91,4.11-2.13,6.4-.32,3.33.28,7.34,3.56,8.71.53.22,1.25.19,1.81.25l2.26-1.53,1.6-3.82c1.12-2.69,1.95-5.37,2.66-8.2l1.23-6.21c.03,1.76-.25,3.42-.58,5.12l-.42,2.18.04.12,1.86-4.51,2.16-5.19c.87-2.1-.53-4.07-.66-6.05-.11-1.7.33-3.31,1.03-4.84l.9-1.95.22-3.97.13-.15-.06,2.11.1,2.19c.02.38.18.75.42,1.03-.11-1.18.02-2.22.29-3.34l1.1-2.78.16-3.73c.06-.17.1-.16.09,0,.16,1.47.13,2.77,1.18,3.74-.21-1.23-.19-2.34.13-3.51l.99-2.57-.07-2.3c-.07-2.08-.04-4.13.38-6.13-.11,2.56-.21,4.97.39,7.44l.71.96c-.25-1.59-.1-3.04.49-4.5l1.11-2.19.48-4.16,1.3-5.67.05-.19s.17.02.16.06l-.05.19c-.79,3.19-1.39,6.95-1.03,10.23l.56.8c-.14-1.65.38-3.14,1.19-4.58.64-1.13,1.67-1.87,2.41-2.93.7-1.01.85-2.42,1.22-3.61.58-1.86.96-3.65,1.36-5.59.05-.15.15-.23.15-.02-.49,3.26-1.08,6.37-1.88,9.53l.42,2.15c.39,2,.02,4.02-.98,5.8-.12.16-.08.2.08.11.5-.25.99-.47,1.38-.78,1.53-2.9,2.51-5.89,3.11-9.17.06-.19.13-.04.14.14l-.75,3.95c-.47,1.82-1,3.55-1.75,5.26-.05,1.42-.27,2.75-.76,4.04-.46,1.11-1.05,2.01-1.93,2.84l1.33-.33.22.13c2.38-2.49,3.98-5.42,5.42-8.55-1.21,3.83-3.33,7.19-5.82,10.27l-.91,2c-.52,1.15-1.39,1.97-2.39,2.79,1.03-.18,1.82-.65,2.83-1.07l-1.48,1.11c-.33.25-.6.42-.73.84-.8,2.46-1.52,3.92-3.6,5.59.39,0,.6-.25.87-.47l3.23-2.79c2.06-1.78,3.68-3.81,5.08-6.17-.08.6-.46,1.01-.76,1.48-.95,1.47-1.93,2.85-3.12,4.14l-3.77,3.68c-.52,1.6-1.13,3.13-2.13,4.46-1.13,1.48-2.54,2.54-4.34,3.05-1.14.32-2.4.98-2.89,2.12l-2.58,5.97-5.5,13.45-.02.12c1.27-.65,2.51-1.13,3.93-1.58ZM95.16,126.48c1.04-1.05,1.04-2.7-.02-3.76-.65-.65-1.51-.95-2.48-.9-.96-2.42-3.54-3.45-5.97-2.47-1.15-1.66-3.02-2.55-4.99-2.53s-3.72.93-4.87,2.55c-2.45-1.01-5.11.13-6.09,2.52-1.35-.06-2.54.66-3.04,1.83-.43,1.01-.2,2.08.62,2.77,1.42.27,2.75.48,4.23.62,7.25.7,15.39.64,22.6-.63ZM93.9,166.88c2.04-4.44,3.09-9.18,3.23-14.08.1-3.46-.25-6.77-.87-10.15l-1.23-6.63c-.43-2.93-.51-5.98.4-8.81-1.82.34-3.54.6-5.38.75-7.13.61-15.01.52-22.04-.75,1.06,3.33.79,6.97.1,10.4l-1.38,7.73c-1.19,7.77-.19,15.67,3.33,22.72,1.63,3.27,4.39,7.26,7.48,9.18,2.6,1.62,5.79,1.61,8.37-.03,3.34-2.12,6.32-6.72,7.99-10.34ZM114.99,139.04l-.39-2.18c-2.58,2.2-4.04,5.6-2.46,8.79,2.15-1.27,3.1-4.1,2.85-6.61ZM109.92,151.24l.58-1.37.61-2.07c.3-1.74-.38-3.36-1.41-4.77-1.26,2.03-1.88,4.44-.89,6.75.26.6.61,1.08,1.12,1.46ZM111,151.12c.75.02,1.35-.2,1.93-.57,1.9-1.24,2.99-3.66,3.12-6.08-1.75.49-3.45,1.66-4.15,3.47l-.7,2.22-.19.96ZM107.44,157.41c.38-.57.57-.98.76-1.52l.49-1.42c.39-1.97-.32-3.89-1.68-5.39-1.22,2.35-1.82,5.13-.41,7.45.2.33.51.58.84.87ZM114.13,152.92l.7-1.82c-1.76.09-3.29.9-4.48,2.19-.64.69-1.02,1.47-1.32,2.38l-.53,1.6c2.33.26,4.86-2.3,5.64-4.34ZM104.57,163.76c.4-.55.7-1.15.96-1.81.19-.49.44-.98.53-1.49.33-1.94-.26-3.77-1.56-5.27l-.84,1.87c-.91,2.02-.91,5.14.92,6.71ZM110.93,159.99l1-2.4c-2.69.12-4.87,1.92-5.71,4.47l-.52,1.61c2.19.18,4.2-1.79,5.23-3.68ZM107.18,158.12l-.58-.52.24,1.38.34-.85ZM118.35,167.95l1.22-.6c2.12-1.03,3.36-3.9,3.37-6.33l-1.58.87c-2.02,1.24-3.4,3.64-3.01,6.05ZM101.76,169.68l1.3-2.74c.54-1.99-.03-4.04-1.37-5.68-1.46,2.62-2.18,6.17.07,8.42ZM104.12,169.9c2.75-.95,4.48-3.26,5.35-5.94-2.85.06-5.2,1.79-6.3,4.38-.25.58-.49,1.05-.6,1.68.57.06,1,.02,1.54-.11ZM104.32,164.45l-.53-.46.16,1.27.37-.81ZM105.8,164.34l-.58-.12-.34.71.92-.59ZM114.48,172.63c2.32-2.38,3.31-4.32,2.42-7.69-2.28,1.61-4.05,5.08-2.42,7.69ZM122.14,167.63c-1.65.07-3.89.93-4.71,2.23l-1.49,2.36c2.87.43,5.29-2.02,6.2-4.6ZM109.88,177.94c2.81-1.98,3.88-4.89,2.71-8.03-2.33,1.98-3.97,5.13-2.71,8.03ZM117.66,175.54c.83-.74,1.47-1.56,2.15-2.52-2.54-.39-5.3.43-6.73,2.49l-1.08,1.55c1.75.89,4.21-.24,5.65-1.52ZM104.78,183.27c.96-.59,1.56-1.22,2.15-2,1.32-1.69,1.78-3.86,1.2-5.94l-2.01,1.94c-1.32,1.67-2.21,4.06-1.34,6ZM85.22,179.44l1.01-1.7c-2.93,1.83-6.34,1.74-9.15-.03l1.1,1.72c2.23,1.03,4.83,1.1,7.04,0ZM109.36,178.56l-.28-.91-.29,1.43.57-.53ZM114.39,179.25l.63-.71c-3.33-.88-5.96.58-7.63,3.48,2.66,1.15,5.27-.79,7.01-2.77ZM85.48,193.83c-1.07-1.03-1.54-2.25-1.92-3.62-.68-3.37-.25-6.87,1.26-10.04-1.98.74-4.21.72-6.26,0,1.48,3.1,1.98,6.64,1.26,10.03-.35,1.38-.8,2.56-1.83,3.64.59.28,1.16.47,1.8.57,1.83.28,4.05.27,5.68-.57ZM110.79,183.6c-2.49-.95-4.82-.73-6.47,1.39,2.29,1.13,4.5.27,6.47-1.39ZM81.26,214.83c.99-.79,1.87-1.37,2.97-1.79,1.4-.54,2.84-.79,4.33-.98l3.27-.42c4.59-.79,7.89-3.66,10.28-7.56l2.45-4.82c1.62-3.59,3.31-6.75,6.79-9.01-4.29-.5-8.61-.23-12.81.86-3.61.94-6.89,2.6-9.69,5.03-1.28,1.11-2.33,2.31-3.32,3.68-2.41,3.35-3.77,7.22-4.04,11.35l-.18,1.94c4.99-8.96,13.75-16.46,23.31-20-7.31,3.55-13.78,8.4-18.89,14.76-1.75,2.16-3.27,4.45-4.47,6.97ZM87.39,195.21l-.21-.15-1.37-.85-1.15.49c-2.13.57-5.1.58-6.99-.48l-1.33.8c-.1.06-.26.18-.25.28,0,.08.14.25.22.28l1.34.48c2.55.6,5.15.66,7.72.14,1.01-.2,2.34-.74,2.01-.98ZM87.98,195.25c-.11.44-.28.66-.61.79-2.48.99-5.73,1.07-8.41.74-1.19-.15-3.42-.58-3.45-1.56-1.62.17-3.23.41-4.8.9-.61.19-1.12.44-1.54.98.26.39.65.63,1.1.8,4.01,1.51,10.29,1.78,14.61,1.51,1.08-1.62,2.34-2.91,3.76-4.13l-.67-.04ZM84.45,199.99c-3.46.15-6.68.03-9.99-.44-1.77-.34-3.93-.65-5.3-1.67-.18,1.21,1.99,1.84,3.36,2.16,3.73.86,7.51,1.09,11.33.95l.6-1Z"/>
    <g>
      <path class="cls-3" d="M62.01,196.13c-1.16-.29-2.17-.86-3.05-1.68l-.26.37c-1.86-1.13-3.73-2.52-4.71-4.51l-.61.82c-2.09-1.57-3.95-3.78-4.42-6.36l-.66.68c-1.75-2.5-2.85-5.6-2.3-8.64l.31-1.17-2.14.99-.22-3.53c-.23-3.73,1.27-7.79,4.68-9.56.76-.39,1.51-.6,2.4-.67-2.53-3.07-3.52-7.08-2.23-10.76.27-.77.99-1.2,1.74-.97.44.13.82.41.98.74.22.45.2.88.02,1.33-1,2.47-.7,5.21.7,7.47.49.8.67,1.19,1.69,1.45,4.4-2.49,9.52.53,11.59,4.74l1.7,3.46-2.04.25c2.63,2.47,3.29,5.94,3.2,9.48l-1.1-.28c.91,2.44.45,5.3-.49,7.76l-.98-.41c.15,2.18-.59,4.21-1.53,6.15l-.51-.14c-.29,1.11-.87,2.1-1.77,2.99ZM52.59,163.3c.16.1.48-.09.53-.3.03-.14-.15-.27-.31-.43-2.6-2.58-3.31-6.58-1.83-9.94-.03-.6-.53-.93-1.1-.79-.17.2-.36.45-.44.71-.69,2.21-.58,4.56.3,6.71.58,1.41,1.61,3.29,2.85,4.03ZM57.61,169.03c1.53.61,3.05.97,4.66.9l3.84-.18c-1.37-3.07-2.8-5.73-5.95-7.13-1.98-.91-4.62-.88-6.21.48.97.34,1.74.88,2.31,1.7-.93-.45-1.75-.91-2.77-.93.21.69.31,1.42.6,2.05.69,1.48,2.05,2.4,3.53,3.1ZM53.4,166.28l-.67-2.14c-.93.61-1.32,1.38-1.86,2.29.04-.98.37-1.91,1.08-2.66-.72-.19-1.44-.12-2.19.11-1.29.49-2.37,1.33-3.19,2.44-2.06,2.79-2,5.87-1.72,9.22l2.56-1.31c2.88-1.47,5.96-4.56,5.99-7.96ZM57.41,178.81c.82-1.15,1.5-2.35,1.88-3.72.46-1.65.5-3.51-.49-4.88-1.87-.56-3.48-1.35-4.72-2.92-.28,1.77-1.18,3.12-2.3,4.49-.03,1.07.29,2.11.86,3.03.58,1,1.3,1.89,2.28,2.49l2.48,1.5ZM48.39,184.31l1.58-1.78,2.14-2.72c.55-.94.98-1.9,1.15-2.97-1.2-1.21-2-2.66-2.21-4.29-1.15,1.05-2.27,1.85-3.61,2.51-.52.89-.76,1.89-.81,2.93-.02,1.26.12,2.48.54,3.68l1.21,2.64ZM67.68,179.1c-.03-1.76-.28-3.24-.83-4.74-.62-1.5-1.48-2.84-2.86-3.73-1.4.06-2.74.05-4.16-.2.62,1.48.65,3.08.23,4.67,1.33,1.89,3.74,2.79,5.93,3.47l1.69.52ZM62.03,181.62c.22-1.33.36-2.67-.15-3.88-.69-.52-1.47-.98-2.09-1.73-.52,1.36-1.25,2.55-2.16,3.75l-2.04-1.13-1.67-1.17c-.28,1.09-.71,2.03-1.31,2.95.22,1.81,2.41,4.16,3.9,5l3.1,1.76.4-.77c.82-1.55,1.57-3.05,2.03-4.8ZM66.38,186.56c.54-1.62.73-3.12.64-4.71-.1-.84-.27-1.64-.67-2.36l-3.49-1.25c.3,1.76.02,3.56-.62,5.26.57.78,1.17,1.44,1.97,1.88l2.17,1.19ZM54.32,188.24c.5-.89.76-1.85.91-2.81-.7-.58-1.3-1.15-1.88-1.83-.54-.69-1-1.4-1.33-2.31l-2.34,2.68c0,2.33,1.74,4.64,3.58,6.14l1.06-1.87ZM60.11,188.94c.56,1.13,1.29,2.04,2.35,2.63l1.46.81.89-2.46c.21-1.07.38-2.1.21-3.18-1.22-.62-2.28-1.39-3.1-2.41-.59,1.37-1.27,2.55-2.05,3.85l-3.93-2.18c-.26,1.24-.79,2.38-1.47,3.54.27.73.73,1.39,1.25,2.05.84.87,1.73,1.59,2.77,2.25.98-1.56,1.69-2.98,1.62-4.88ZM61.79,195.32c.62-.78,1.12-1.59,1.27-2.52-.94-.51-1.76-1.05-2.44-1.86-.24,1.04-.66,1.92-1.22,2.84.63.69,1.48,1.17,2.38,1.53Z"/>
      <g>
        <path class="cls-3" d="M90.77,168.61c1.68-3.67,2.99-7.36,3.55-11.36.73-5.23.27-10.13-.54-15.31l-.93-5.03.13-.25c.03-.06.17.04.25.12l1.21,6.63c.48,3.02.76,5.94.71,9.02-.15,5.69-1.55,11.28-4.38,16.19Z"/>
        <path class="cls-3" d="M69.15,145.33c-1.01,8-.35,14.82,2.92,22.2-2.24-4.16-3.42-8.8-3.75-13.52-.19-3.5.06-6.87.61-10.33l1.29-6.95h.3c.06,0,.07.19.06.26-.54,2.79-1.03,5.51-1.42,8.35Z"/>
      </g>
    </g>
  </g>
  <path class="cls-3" d="M81.99,441.36c.35.2.62.47.83.82l.11-.1c.5.53.98,1.15,1.12,1.89l.26-.22c.53.7.94,1.58.87,2.47l.27-.17c.35.97.43,2.08,0,3.03l-.2.35.77-.14-.23,1.17c-.25,1.24-1.07,2.44-2.31,2.72-.28.06-.53.06-.82.01.54,1.22.52,2.62-.21,3.71-.15.23-.42.3-.64.17-.13-.08-.23-.21-.25-.33-.03-.17.01-.31.11-.44.53-.72.67-1.64.42-2.5-.09-.31-.11-.45-.41-.62-1.62.43-2.99-1.01-3.29-2.57l-.25-1.28.67.1c-.63-1.04-.54-2.23-.21-3.38l.33.19c-.08-.88.31-1.77.82-2.49l.28.22c.14-.73.55-1.32,1.01-1.88l.15.09c.19-.34.46-.61.82-.82ZM82.19,452.92s-.16-.01-.19.05c-.02.04.02.1.06.17.61,1.07.49,2.44-.26,3.41-.04.2.09.35.28.36.07-.05.15-.12.2-.2.41-.66.58-1.44.48-2.22-.06-.51-.23-1.22-.57-1.57ZM81.08,450.6c-.44-.33-.89-.59-1.41-.7l-1.24-.28c.17,1.12.4,2.12,1.29,2.85.55.47,1.4.69,2.02.39-.28-.2-.48-.44-.59-.76.26.23.48.45.81.55,0-.25.02-.49-.02-.72-.09-.54-.45-.96-.86-1.32ZM82.19,451.87l.03.76c.35-.12.54-.33.79-.58-.1.32-.28.59-.57.78.21.13.45.16.71.16.45-.05.87-.23,1.23-.52.9-.73,1.14-1.74,1.34-2.87l-.93.2c-1.04.23-2.29.97-2.59,2.08ZM81.98,447.42c-.36.3-.68.64-.92,1.05-.29.5-.46,1.1-.26,1.64.55.35.99.74,1.26,1.37.24-.55.64-.92,1.12-1.27.1-.35.09-.72-.02-1.07-.1-.38-.25-.73-.52-1.01l-.66-.71ZM85.33,446.42l-.66.44-.91.7c-.26.26-.48.54-.62.87.28.5.41,1.05.34,1.6.46-.24.88-.41,1.37-.51.24-.25.4-.55.51-.89.11-.41.17-.82.14-1.25l-.16-.97ZM78.73,446.43c-.14.58-.19,1.08-.14,1.62.07.54.23,1.06.59,1.47.45.1.88.22,1.31.43-.07-.54.06-1.06.33-1.55-.26-.74-.95-1.24-1.59-1.66l-.5-.32ZM80.74,446.1c-.18.42-.34.84-.28,1.28.18.23.38.45.52.75.28-.4.62-.72,1.01-1.04l.56.55.43.53c.18-.33.4-.6.67-.85.08-.61-.41-1.57-.81-1.98l-.84-.85-.19.22c-.39.44-.76.86-1.06,1.39ZM79.78,444.1c-.31.48-.5.96-.61,1.49-.04.28-.05.56.01.83l1.01.71c.05-.6.3-1.17.65-1.67-.12-.3-.25-.57-.47-.79l-.59-.58ZM83.77,444.61c-.24.25-.4.54-.53.84.17.25.32.49.44.76.11.27.2.54.23.87l.98-.67c.2-.76-.16-1.67-.62-2.32l-.5.52ZM81.98,443.88c-.08-.42-.24-.78-.52-1.06l-.4-.39-.5.73c-.16.33-.3.65-.34,1.02.33.31.61.66.78,1.06.31-.4.62-.72.98-1.08l1.07,1.06c.19-.38.46-.71.77-1.03-.02-.26-.11-.52-.22-.78-.19-.36-.42-.67-.69-.98-.45.42-.8.83-.93,1.45ZM81.99,441.64c-.26.2-.49.42-.62.71.26.25.47.5.62.82.17-.32.38-.57.63-.82-.14-.28-.37-.51-.63-.71Z"/>
  <g>
    <rect class="cls-1" x="70.11" y="362.05" width="21.92" height="22.44"/>
    <path class="cls-3" d="M76.18,374.21c-.52.44-.92.98-1.2,1.64s-.42,1.35-.42,2.09c0,1.03.18,1.93.54,2.71.36.78.87,1.37,1.54,1.79s1.44.63,2.33.63c1.05,0,2-.24,2.86-.72.85-.48,1.56-1.23,2.12-2.25l.48.4c-.73,1.26-1.67,2.24-2.82,2.94-1.15.7-2.51,1.05-4.09,1.05-1.32,0-2.43-.25-3.33-.73-.9-.49-1.58-1.15-2.05-1.97-.47-.83-.71-1.73-.71-2.71s.26-1.9.77-2.76c.51-.86,1.26-1.58,2.23-2.16.97-.58,2.15-.94,3.54-1.08l.04.36c-.7.08-1.31.34-1.83.77ZM77.43,364.54c-.58.73-.86,1.67-.86,2.82s.25,2.15.74,2.95c.49.81,1.23,1.36,2.22,1.65.43.12.81.27,1.14.45.33.18.65.41.95.68s.61.6.93,1l6.56,8.35c.25.31.5.53.74.67.25.13.54.22.88.25.17,0,.29.04.38.1.08.06.12.15.12.27s-.04.21-.13.28c-.08.07-.22.1-.4.1h-3.39c-.27,0-.5-.04-.69-.13-.19-.08-.37-.23-.54-.44l-6.45-8.2c-.48-.61-.89-1.06-1.22-1.37-.33-.3-.72-.51-1.15-.65-1.21-.39-2.12-1.01-2.75-1.85-.62-.84-.93-1.88-.93-3.11,0-1.05.26-1.99.77-2.83s1.25-1.49,2.21-1.98c.96-.48,2.1-.73,3.42-.73,1.15,0,2.14.19,2.97.57.83.38,1.47.91,1.92,1.58.45.68.67,1.45.67,2.32,0,.92-.21,1.74-.62,2.45-.42.72-1.06,1.32-1.94,1.8s-2.02.85-3.41,1.1l-.12-.38c1.1-.21,1.92-.74,2.45-1.58s.79-1.91.79-3.2-.27-2.27-.81-2.98-1.26-1.06-2.16-1.06c-.95,0-1.71.37-2.29,1.09ZM87.52,375.4c.2-.35.32-.66.34-.94.03-.28-.02-.51-.15-.7-.13-.19-.35-.32-.66-.4l-1.17-.27c-.12-.04-.21-.09-.27-.15-.06-.06-.09-.13-.09-.21,0-.1.04-.18.13-.25.08-.07.2-.1.34-.1h4.92c.33,0,.5.12.5.38,0,.09-.03.17-.09.23-.06.07-.17.13-.32.2-.64.21-1.15.49-1.54.83-.39.34-.76.8-1.12,1.4l-2.13,4.06-.39-.47,1.71-3.6Z"/>
  </g>
  <g>
    <rect class="cls-1" x="7.05" y="390.18" width="148" height="29.7"/>
    <path class="cls-3" d="M32.49,412.32c-.07,1.03-.36,2.02-.88,2.97-.52.95-1.24,1.81-2.16,2.57-.92.76-2.02,1.36-3.29,1.8-1.27.44-2.7.66-4.27.66-2.73,0-5.09-.61-7.08-1.83-1.99-1.22-3.52-2.91-4.6-5.08-1.08-2.17-1.62-4.66-1.62-7.49,0-2.16.32-4.15.97-5.96.65-1.81,1.56-3.38,2.73-4.71,1.17-1.33,2.56-2.36,4.16-3.09,1.6-.73,3.35-1.1,5.26-1.1,1.36,0,2.48.15,3.35.44.87.29,1.55.59,2.03.89.48.3.81.45.98.45.23,0,.43-.14.62-.41.19-.27.37-.54.55-.81.18-.27.36-.4.55-.4.13,0,.24.04.33.12.09.08.16.22.21.42l2.12,7.08c.05.19.04.35-.03.49s-.2.22-.37.25c-.17.03-.33,0-.46-.07-.13-.07-.24-.2-.32-.39-.72-1.67-1.53-3.01-2.42-4.02-.89-1.01-1.88-1.75-2.97-2.22s-2.27-.7-3.55-.7-2.54.29-3.65.86c-1.11.57-2.08,1.4-2.91,2.48-.83,1.08-1.47,2.38-1.92,3.91-.45,1.53-.68,3.25-.68,5.17,0,2.89.45,5.35,1.34,7.36.89,2.01,2.12,3.54,3.69,4.59,1.57,1.05,3.35,1.57,5.35,1.57s3.77-.52,5.15-1.57c1.38-1.05,2.36-2.46,2.95-4.25.08-.16.16-.27.25-.33s.18-.08.29-.07.18.06.23.13.07.17.07.29Z"/>
    <path class="cls-3" d="M63.13,401.24c0,1.33-.29,2.53-.87,3.59-.58,1.06-1.39,1.94-2.44,2.64-1.05.7-2.3,1.18-3.75,1.43-.35.07-.69.13-1.02.19-.33.06-.67.11-1.02.14-.35.03-.71.05-1.1.05-.89,0-1.73-.06-2.52-.18s-1.5-.3-2.15-.53c-.65-.23-1.21-.53-1.69-.89l.16-.9c.43.32.93.58,1.5.79s1.19.36,1.85.46,1.32.15,1.99.15c2.01,0,3.6-.59,4.77-1.76,1.17-1.17,1.75-2.89,1.75-5.14,0-1.67-.36-3.15-1.07-4.45-.71-1.3-1.71-2.32-3-3.07-1.29-.75-2.79-1.12-4.51-1.12h-2.22v24.92c0,.25.07.45.2.6.13.15.33.25.6.3l1.82.26c.19.05.32.12.39.19.07.07.11.18.11.31,0,.29-.2.44-.6.44h-9.26c-.21,0-.37-.04-.47-.13-.1-.09-.15-.19-.15-.31,0-.25.17-.42.5-.5l1.58-.26c.28-.07.49-.17.64-.31.15-.14.22-.34.22-.59v-23.88c0-.23-.07-.41-.22-.54s-.36-.23-.64-.28l-1.58-.26c-.33-.08-.5-.25-.5-.5,0-.13.05-.24.15-.32.1-.08.26-.12.47-.12h9.04c2.77,0,5.13.4,7.07,1.21,1.94.81,3.42,1.93,4.44,3.38,1.02,1.45,1.53,3.11,1.53,4.99ZM52.95,408.78l4.28-.5,5.68,9.02c.29.45.6.77.93.96.33.19.73.33,1.21.44.29.07.49.14.58.21.09.07.14.18.14.31,0,.12-.05.22-.16.31s-.27.13-.48.13h-7.9c-.4,0-.6-.15-.6-.44,0-.11.03-.19.1-.25.07-.06.17-.11.32-.15l.88-.14c.31-.09.48-.24.53-.44.05-.2-.04-.48-.27-.84l-5.24-8.62Z"/>
    <path class="cls-3" d="M78.09,419.22c0,.12-.05.22-.15.31-.1.09-.26.13-.47.13h-5.98c-.2,0-.35-.04-.45-.12-.1-.08-.15-.19-.15-.32,0-.11.03-.2.1-.27.07-.07.19-.14.36-.19l.84-.28c.37-.13.69-.36.96-.69.27-.33.52-.88.76-1.67l6.96-21.96c.15-.44.16-.77.05-1-.11-.23-.4-.4-.85-.52-.25-.08-.43-.16-.54-.24-.11-.08-.16-.18-.16-.3,0-.15.05-.26.16-.33.11-.07.27-.11.48-.11h7.36c.21,0,.37.04.47.11.1.07.15.18.15.31s-.05.24-.15.33c-.1.09-.27.16-.51.21-.39.07-.62.17-.69.31s-.06.38.05.73l7.8,23.58c.15.45.34.79.57,1.01.23.22.56.36.99.43.23.07.38.14.46.22.08.08.12.19.12.32,0,.12-.05.22-.16.31s-.26.13-.46.13h-7.74c-.2,0-.35-.04-.46-.13s-.16-.19-.16-.31.04-.22.13-.29c.09-.07.22-.13.39-.17l1.26-.18c.32-.08.5-.22.54-.42s0-.5-.12-.9l-7.8-23.9.5-.46-7.32,23.12c-.16.48-.22.88-.17,1.21.05.33.19.59.44.8.25.21.58.38,1.01.51l1.08.22c.17.05.3.11.38.18.08.07.12.16.12.28ZM76.81,408.68h11.26l.1,1.06h-11.5l.14-1.06Z"/>
    <path class="cls-3" d="M119.05,391.66c.37,0,.69-.06.95-.18.26-.12.49-.24.68-.35s.37-.17.53-.17c.19,0,.33.05.43.15.1.1.19.3.27.59l1.62,6.1c.05.17.04.32-.04.43-.08.11-.19.18-.34.21-.13.03-.26.01-.38-.04s-.23-.17-.32-.36c-.69-1.44-1.33-2.55-1.92-3.32-.59-.77-1.19-1.3-1.81-1.59s-1.33-.43-2.13-.43h-5.44v24.94c0,.23.08.41.24.55.16.14.41.23.74.27l2.24.26c.2.03.34.08.42.16.08.08.12.19.12.34,0,.12-.05.22-.14.31s-.25.13-.46.13h-9.9c-.2,0-.35-.04-.45-.13-.1-.09-.15-.19-.15-.31,0-.25.17-.42.5-.5l1.58-.26c.28-.05.49-.15.64-.28s.22-.31.22-.54v-23.96c0-.23-.07-.41-.22-.54s-.36-.23-.64-.28l-1.58-.26c-.33-.08-.5-.25-.5-.5,0-.13.05-.24.15-.32.1-.08.25-.12.45-.12h14.64ZM109.51,405.58h6.48c.92,0,1.59-.19,2.01-.58.42-.39.67-1.11.75-2.18.04-.17.1-.3.17-.37s.17-.12.29-.13c.29-.04.48.11.56.46l1.54,6.06c.04.17.04.31,0,.42-.05.11-.14.18-.27.22-.13.04-.26.03-.37-.02-.11-.05-.22-.15-.33-.28-.41-.68-.79-1.21-1.13-1.58-.34-.37-.71-.63-1.1-.78s-.89-.22-1.49-.22h-7.1v-1.02Z"/>
    <path class="cls-3" d="M134.33,391.66h15.34c.35,0,.64-.06.89-.18.25-.12.46-.24.65-.35.19-.11.37-.17.54-.17.2,0,.36.05.47.16.11.11.21.31.29.6l1.32,6.66c.04.2.03.37-.03.5-.06.13-.17.21-.33.24-.15.03-.28,0-.4-.06-.12-.07-.23-.19-.32-.36-.67-1.71-1.27-2.99-1.8-3.84-.53-.85-1.07-1.42-1.61-1.71s-1.17-.43-1.89-.43h-3.18v24.92c0,.23.07.41.22.54s.36.23.64.28l1.56.26c.33.08.5.25.5.5,0,.29-.2.44-.6.44h-9.06c-.21,0-.37-.04-.47-.13s-.15-.19-.15-.31c0-.25.17-.42.5-.5l1.58-.26c.28-.05.49-.15.64-.28.15-.13.22-.31.22-.54v-24.92h-3.2c-.71,0-1.33.15-1.88.46s-1.08.89-1.61,1.74c-.53.85-1.13,2.11-1.81,3.78-.08.17-.18.29-.3.36-.12.07-.26.09-.42.06-.15-.03-.25-.11-.31-.24-.06-.13-.07-.3-.03-.5l1.32-6.66c.07-.29.16-.49.27-.6.11-.11.27-.16.47-.16.17,0,.34.06.51.17s.37.23.6.35c.23.12.52.18.87.18Z"/>
  </g>
  <g>
    <rect class="cls-1" x="24.91" y="429.54" width="112.31" height="8.66"/>
    <path class="cls-3" d="M26.35,429.55h3.01c.42,0,.78.06,1.09.19s.56.28.76.47c.2.19.34.4.44.64.1.23.14.46.14.68,0,.26-.06.5-.17.73s-.26.43-.45.6c-.19.17-.41.31-.65.42-.25.11-.51.16-.79.16v.05c.18,0,.41.04.7.08.29.05.57.14.84.29.27.14.51.35.71.62s.3.64.3,1.09c0,.29-.05.57-.15.86-.1.28-.26.54-.49.76-.23.22-.52.41-.89.55-.37.14-.82.21-1.36.21h-3.02v-8.4ZM28.88,433.22c.24,0,.47-.04.68-.12.21-.08.4-.19.56-.34s.29-.32.38-.52c.09-.2.14-.42.14-.65,0-.18-.03-.37-.1-.55-.06-.18-.17-.35-.31-.49s-.32-.26-.54-.35c-.22-.09-.49-.13-.8-.13h-1.46v3.14h1.44ZM29.19,437.42c.26,0,.5-.04.73-.11.23-.08.43-.19.6-.34.17-.15.3-.34.4-.55.1-.22.15-.46.15-.74,0-.26-.05-.5-.14-.73-.09-.23-.23-.44-.42-.61-.19-.18-.43-.32-.72-.42s-.63-.16-1.02-.16h-1.32v3.67h1.75Z"/>
    <path class="cls-3" d="M40.96,429.55v.66h-4.33v3.01h3.72v.55h-3.72v3.52h4.33v.66h-5.42v-8.4h5.42Z"/>
    <path class="cls-3" d="M49.43,429.55v.66h-4.33v3.01h3.72v.55h-3.72v3.52h4.33v.66h-5.42v-8.4h5.42Z"/>
    <path class="cls-3" d="M55.2,429.55c.54,0,.98.07,1.33.22.35.15.63.33.83.55.2.22.35.46.43.71.08.26.13.49.13.71,0,.24-.04.49-.12.74s-.21.49-.38.7c-.17.22-.4.4-.67.54s-.6.23-.99.25v.05l.12.06c.1.05.18.11.25.18.07.07.16.19.26.35.11.16.25.39.44.68.18.29.44.68.77,1.17.11.17.22.32.32.45.1.13.21.24.32.34.11.09.23.16.36.21.13.05.28.07.44.07.04,0,.08,0,.12,0,.04,0,.08-.01.12-.02v.44c-.11.06-.22.1-.34.12-.11.02-.26.02-.43.02-.24,0-.45-.03-.62-.1s-.32-.15-.46-.26c-.13-.11-.26-.24-.38-.39-.11-.15-.23-.32-.35-.5l-.95-1.4c-.14-.22-.27-.41-.37-.56-.1-.15-.22-.28-.34-.37-.12-.1-.25-.16-.4-.2s-.33-.06-.56-.06h-.53v3.71h-1.09v-8.4h2.72ZM53.57,433.7h1.24c.32,0,.6-.06.85-.17.24-.11.45-.26.62-.44s.29-.38.38-.6c.08-.22.13-.44.13-.65,0-.26-.05-.49-.14-.71-.09-.22-.23-.4-.4-.56-.18-.16-.39-.28-.63-.37-.24-.09-.52-.13-.83-.13h-1.22v3.62Z"/>
    <path class="cls-3" d="M68.88,437.95h-1.09v-8.4h2.81c.46,0,.87.07,1.21.2.34.14.63.32.86.55.23.23.4.5.51.8.11.31.17.63.17.97s-.06.68-.19.99c-.13.31-.32.58-.57.82-.25.24-.57.42-.94.56-.38.14-.81.2-1.3.2-.29,0-.55-.02-.79-.05-.24-.04-.46-.08-.67-.14v3.5ZM68.88,433.95c.17.06.36.11.56.13.21.02.44.03.68.03.36,0,.67-.06.92-.18s.47-.28.64-.47c.17-.19.29-.41.37-.64s.11-.47.11-.7-.04-.48-.13-.73c-.08-.24-.21-.46-.38-.66-.17-.2-.38-.35-.64-.47s-.55-.18-.89-.18h-1.26v3.88Z"/>
    <path class="cls-3" d="M76.92,435.47l-1.06,2.47h-.55l3.55-8.4h.6l3.91,8.4h-1.16l-1.15-2.47h-4.14ZM78.92,430.89h-.05l-1.73,4.04h3.66l-1.88-4.04Z"/>
    <path class="cls-3" d="M87.99,429.55v8.4h-1.09v-8.4h1.09Z"/>
    <path class="cls-3" d="M95.33,429.55c.54,0,.98.07,1.33.22.35.15.63.33.83.55.2.22.35.46.43.71.08.26.13.49.13.71,0,.24-.04.49-.12.74s-.21.49-.38.7c-.17.22-.4.4-.67.54s-.6.23-.99.25v.05l.12.06c.1.05.18.11.25.18.07.07.16.19.26.35.11.16.25.39.44.68.18.29.44.68.77,1.17.11.17.22.32.32.45.1.13.21.24.32.34.11.09.23.16.36.21.13.05.28.07.44.07.04,0,.08,0,.12,0,.04,0,.08-.01.12-.02v.44c-.11.06-.22.1-.34.12-.11.02-.26.02-.43.02-.24,0-.45-.03-.62-.1s-.32-.15-.46-.26c-.13-.11-.26-.24-.38-.39-.11-.15-.23-.32-.35-.5l-.95-1.4c-.14-.22-.27-.41-.37-.56-.1-.15-.22-.28-.34-.37-.12-.1-.25-.16-.4-.2s-.33-.06-.56-.06h-.53v3.71h-1.09v-8.4h2.72ZM93.7,433.7h1.24c.32,0,.6-.06.85-.17.24-.11.45-.26.62-.44s.29-.38.38-.6c.08-.22.13-.44.13-.65,0-.26-.05-.49-.14-.71-.09-.22-.23-.4-.4-.56-.18-.16-.39-.28-.63-.37-.24-.09-.52-.13-.83-.13h-1.22v3.62Z"/>
    <path class="cls-3" d="M104.04,429.55v8.4h-1.09v-8.4h1.09Z"/>
    <path class="cls-3" d="M115.97,429.55v8.54h-.06l-6.66-6.56h-.05v6.42h-.55v-8.54h.06l6.66,6.56h.05v-6.42h.55Z"/>
    <path class="cls-3" d="M127.74,437.95h-1.02v-.49c-.3.16-.69.31-1.15.44-.46.13-1,.2-1.6.2-.8,0-1.49-.13-2.07-.38s-1.05-.59-1.42-1.01c-.37-.42-.65-.9-.83-1.43s-.27-1.08-.27-1.65c0-.66.12-1.26.35-1.78.23-.52.56-.97.97-1.33.42-.36.91-.64,1.48-.83.57-.19,1.2-.29,1.88-.29.59,0,1.11.07,1.54.2.44.13.8.29,1.1.49s.53.4.7.62c.17.22.29.42.37.59h-.86c-.05-.17-.15-.33-.32-.5s-.37-.31-.63-.44-.55-.23-.88-.31-.68-.12-1.06-.12c-.57,0-1.07.09-1.49.28-.43.18-.79.44-1.09.78s-.52.74-.67,1.2c-.15.46-.22.97-.22,1.52s.08,1.07.23,1.54c.16.47.39.87.7,1.21s.71.61,1.18.8c.47.19,1.03.29,1.66.29.48,0,.91-.06,1.29-.17.38-.11.75-.28,1.11-.52v-2.17h-1.34v-.49h2.36v3.74Z"/>
    <path class="cls-3" d="M130.97,435.82c0,.14.04.3.1.5.06.2.16.39.32.57.16.18.39.34.7.47s.71.2,1.21.2c.63,0,1.14-.12,1.52-.36.38-.24.57-.62.57-1.14,0-.42-.12-.75-.36-1-.24-.25-.54-.46-.91-.63-.36-.17-.76-.33-1.18-.46-.42-.14-.82-.3-1.18-.49s-.67-.43-.91-.72c-.24-.29-.36-.67-.36-1.14,0-.36.07-.68.22-.96.15-.28.35-.51.6-.7.25-.18.54-.32.88-.42.33-.1.68-.14,1.05-.14s.69.04,1.02.13c.32.08.61.21.87.37.26.16.47.36.64.6s.28.5.32.8h-.82c-.06-.47-.28-.82-.64-1.04-.37-.22-.81-.33-1.33-.33-.31,0-.59.04-.83.11s-.44.18-.61.3c-.16.12-.29.27-.37.44s-.13.35-.13.54c0,.34.12.62.37.83.25.21.56.39.93.55.37.16.78.31,1.21.46.44.14.84.32,1.21.53s.68.48.93.79c.25.32.37.72.37,1.22,0,.36-.07.69-.22.98s-.35.55-.61.76-.58.37-.96.48c-.37.11-.79.17-1.26.17s-.88-.05-1.26-.16-.72-.26-1-.46c-.28-.2-.51-.43-.67-.71-.17-.28-.25-.59-.27-.94h.82Z"/>
  </g>
  <g>
    <rect class="cls-1" x="-1.6" y="323.4" width="167.36" height="31.94"/>
    <path class="cls-3" d="M25.75,347.2c-.07,1.1-.39,2.17-.95,3.19-.56,1.02-1.33,1.95-2.32,2.76s-2.17,1.46-3.54,1.94-2.9.71-4.59.71c-2.94,0-5.48-.66-7.61-1.97s-3.78-3.13-4.94-5.46c-1.16-2.33-1.74-5.01-1.74-8.05,0-2.32.35-4.46,1.04-6.41.7-1.95,1.67-3.64,2.93-5.06s2.75-2.53,4.47-3.32c1.72-.79,3.6-1.18,5.65-1.18,1.46,0,2.66.16,3.6.47.94.32,1.67.63,2.18.96.52.32.87.48,1.05.48.24,0,.47-.15.67-.44.2-.29.4-.58.59-.87.19-.29.39-.43.59-.43.14,0,.26.04.35.13.09.09.17.24.23.45l2.28,7.61c.06.2.05.38-.03.53-.08.15-.21.24-.4.27s-.35,0-.49-.08c-.14-.08-.26-.22-.34-.42-.77-1.79-1.64-3.23-2.6-4.32-.96-1.09-2.02-1.88-3.19-2.39-1.17-.5-2.44-.75-3.82-.75s-2.73.31-3.92.92c-1.2.62-2.24,1.51-3.13,2.67-.89,1.16-1.58,2.56-2.06,4.2s-.73,3.49-.73,5.56c0,3.11.48,5.75,1.44,7.91.96,2.16,2.28,3.81,3.97,4.93,1.68,1.13,3.6,1.69,5.75,1.69s4.05-.56,5.54-1.69c1.48-1.12,2.54-2.65,3.17-4.57.09-.17.17-.29.27-.35.09-.06.2-.09.31-.08.11.01.2.06.25.14.05.08.08.18.08.31Z"/>
    <path class="cls-3" d="M40.2,354.62c0,.13-.05.24-.16.33s-.28.14-.5.14h-6.43c-.21,0-.38-.04-.48-.13s-.16-.2-.16-.34c0-.11.04-.21.11-.29.07-.08.2-.15.39-.2l.9-.3c.4-.14.75-.39,1.03-.74.29-.35.56-.95.82-1.8l7.48-23.61c.16-.47.18-.83.05-1.07s-.43-.43-.91-.56c-.27-.09-.47-.17-.58-.26-.11-.09-.17-.19-.17-.32,0-.16.06-.28.17-.35.11-.08.29-.12.52-.12h7.91c.23,0,.4.04.51.12.11.08.16.19.16.33s-.05.26-.16.35c-.11.09-.29.17-.55.23-.42.07-.66.18-.74.33-.08.15-.06.41.05.78l8.38,25.35c.16.49.36.85.61,1.09.25.24.6.39,1.06.46.24.07.41.15.5.24s.13.2.13.34c0,.13-.06.24-.17.33-.12.09-.28.14-.5.14h-8.32c-.21,0-.38-.05-.49-.14-.12-.09-.17-.2-.17-.33s.05-.23.14-.31c.09-.08.23-.14.42-.18l1.35-.19c.34-.09.54-.24.58-.45.04-.22,0-.54-.13-.97l-8.38-25.69.54-.49-7.87,24.85c-.17.52-.23.95-.18,1.3.05.35.21.64.47.86.26.22.63.41,1.09.55l1.16.24c.19.06.32.12.41.19s.13.17.13.3ZM38.82,343.28h12.1l.11,1.14h-12.36l.15-1.14Z"/>
    <path class="cls-3" d="M92.96,347.2c-.07,1.1-.39,2.17-.95,3.19-.56,1.02-1.33,1.95-2.32,2.76s-2.17,1.46-3.54,1.94-2.9.71-4.59.71c-2.94,0-5.48-.66-7.61-1.97s-3.78-3.13-4.94-5.46c-1.16-2.33-1.74-5.01-1.74-8.05,0-2.32.35-4.46,1.04-6.41.7-1.95,1.67-3.64,2.93-5.06s2.75-2.53,4.47-3.32c1.72-.79,3.6-1.18,5.65-1.18,1.46,0,2.66.16,3.6.47.94.32,1.67.63,2.18.96.52.32.87.48,1.05.48.24,0,.47-.15.67-.44.2-.29.4-.58.59-.87.19-.29.39-.43.59-.43.14,0,.26.04.35.13.09.09.17.24.23.45l2.28,7.61c.06.2.05.38-.03.53-.08.15-.21.24-.4.27s-.35,0-.49-.08c-.14-.08-.26-.22-.34-.42-.77-1.79-1.64-3.23-2.6-4.32-.96-1.09-2.02-1.88-3.19-2.39-1.17-.5-2.44-.75-3.82-.75s-2.73.31-3.92.92c-1.2.62-2.24,1.51-3.13,2.67-.89,1.16-1.58,2.56-2.06,4.2s-.73,3.49-.73,5.56c0,3.11.48,5.75,1.44,7.91.96,2.16,2.28,3.81,3.97,4.93,1.68,1.13,3.6,1.69,5.75,1.69s4.05-.56,5.54-1.69c1.48-1.12,2.54-2.65,3.17-4.57.09-.17.17-.29.27-.35.09-.06.2-.09.31-.08.11.01.2.06.25.14.05.08.08.18.08.31Z"/>
    <path class="cls-3" d="M107.41,354.62c0,.13-.05.24-.16.33s-.28.14-.5.14h-6.43c-.21,0-.38-.04-.48-.13s-.16-.2-.16-.34c0-.11.04-.21.11-.29.07-.08.2-.15.39-.2l.9-.3c.4-.14.75-.39,1.03-.74.29-.35.56-.95.82-1.8l7.48-23.61c.16-.47.18-.83.05-1.07s-.43-.43-.91-.56c-.27-.09-.47-.17-.58-.26-.11-.09-.17-.19-.17-.32,0-.16.06-.28.17-.35.11-.08.29-.12.52-.12h7.91c.23,0,.4.04.51.12.11.08.16.19.16.33s-.05.26-.16.35c-.11.09-.29.17-.55.23-.42.07-.66.18-.74.33-.08.15-.06.41.05.78l8.38,25.35c.16.49.36.85.61,1.09.25.24.6.39,1.06.46.24.07.41.15.5.24s.13.2.13.34c0,.13-.06.24-.17.33-.12.09-.28.14-.5.14h-8.32c-.21,0-.38-.05-.49-.14-.12-.09-.17-.2-.17-.33s.05-.23.14-.31c.09-.08.23-.14.42-.18l1.35-.19c.34-.09.54-.24.58-.45.04-.22,0-.54-.13-.97l-8.38-25.69.54-.49-7.87,24.85c-.17.52-.23.95-.18,1.3.05.35.21.64.47.86.26.22.63.41,1.09.55l1.16.24c.19.06.32.12.41.19s.13.17.13.3ZM106.03,343.28h12.1l.11,1.14h-12.36l.15-1.14Z"/>
    <path class="cls-3" d="M149.22,324.41c2.19,0,4.19.39,6,1.16,1.81.77,3.36,1.87,4.68,3.28,1.31,1.41,2.32,3.07,3.03,4.99.71,1.91,1.06,4.01,1.06,6.29s-.36,4.4-1.08,6.31-1.73,3.56-3.03,4.94c-1.3,1.38-2.86,2.45-4.68,3.2-1.81.75-3.82,1.13-6.01,1.13s-4.17-.39-5.97-1.16-3.35-1.87-4.66-3.28c-1.3-1.41-2.31-3.08-3.02-5.01-.71-1.93-1.06-4.05-1.06-6.35s.36-4.37,1.06-6.27c.71-1.9,1.72-3.54,3.03-4.91s2.87-2.44,4.68-3.19c1.81-.75,3.79-1.13,5.96-1.13ZM159.11,343.13c0-1.95-.19-3.8-.56-5.56s-.9-3.36-1.57-4.81-1.47-2.7-2.39-3.76c-.92-1.06-1.93-1.88-3.04-2.46-1.11-.58-2.28-.87-3.52-.87-1.71,0-3.21.44-4.51,1.32-1.3.88-2.32,2.16-3.04,3.83-.72,1.67-1.09,3.69-1.09,6.05,0,1.98.18,3.85.55,5.61.37,1.76.88,3.38,1.56,4.84.67,1.46,1.47,2.73,2.39,3.79.92,1.07,1.93,1.89,3.04,2.47,1.11.58,2.28.87,3.51.87,1.73,0,3.25-.44,4.55-1.32,1.3-.88,2.31-2.16,3.03-3.85.72-1.68,1.09-3.74,1.09-6.16Z"/>
  </g>
</svg>